<?xml version="1.0" encoding="utf-8"?>
<!-- Generator: Adobe Illustrator 24.1.2, SVG Export Plug-In . SVG Version: 6.00 Build 0)  -->
<svg version="1.1" id="Layer_1" xmlns="http://www.w3.org/2000/svg" xmlns:xlink="http://www.w3.org/1999/xlink" x="0px" y="0px"
	 viewBox="0 0 512 512" style="enable-background:new 0 0 512 512;" xml:space="preserve">
<style type="text/css">
	.st0{fill:#39367F;}
	.st1{fill:#BF7C19;}
	.st2{fill:#55E555;}
	.st3{fill:#2285BC;}
	.st4{fill:#C6271A;}
</style>
<path id="red" class="st0" d="M339.6,396.3c-55.2,34-124.9,32.2-178.2-4.6l-38,6.1l6.9,44.1c75.7,51.1,174.4,50.6,249.5-1.3
	l-45.9-7.4L339.6,396.3z"/>
<path id="pink" class="st1" d="M467.4,187.9l-21.8,43.5l-31.4-16.2c13.2,56.4-3.4,115.6-43.7,156.6c-5.5,5.5-11.3,10.7-17.5,15.4
	l-5.7,36.2l45.7,7.3C464.4,372.9,494,276.7,467.4,187.9L467.4,187.9z"/>
<path id="yellow" class="st2" d="M264.9,87.5C331,92,388,136.1,409.6,199.6l30.7,15.9l21.7-43.1c-31.9-83.5-111.2-143-204.5-144.5
	l33.1,33.5L264.9,87.5z"/>
<path id="green" class="st3" d="M100.7,193c24.1-62,82.2-103.6,147.9-105.7l25.4-25.8l-32.8-33.2C149.7,33.5,72.9,94.7,43.7,178.6
	l39.6-20.5L100.7,193z"/>
<path id="blue" class="st4" d="M148.4,381.8c-3.7-3.2-7.3-6.5-10.8-10c-42.1-42.7-58.1-105-42.1-163.1l-17.4-34.6l-39.3,20.3
	c-23.6,87.9,7.2,181.6,78,237.6l-6.9-44.1L148.4,381.8z"/>
</svg>
