<svg id="Layer_1" data-name="Layer 1" xmlns="http://www.w3.org/2000/svg" viewBox="0 0 400.29 390.89"><defs><style>.cls-1{fill:#39367f;}.cls-2{fill:#bf7c19;}.cls-3{fill:#55e555;}.cls-4{fill:#2285bc;}.cls-5{fill:#c6271a;}</style></defs><path id="red" class="cls-1" d="M328,372.59a150.76,150.76,0,0,1-160-4l-34.15,5.27,6.2,38.17A204.27,204.27,0,0,0,364,410.9l-41.17-6.36Z" transform="translate(-51.02 -54)"/><path id="pink" class="cls-2" d="M442.65,192.39,423,230,394.9,216c11.84,48.74-3,100-39.26,135.42a151.57,151.57,0,0,1-15.73,13.31L334.82,396l41,6.34c64.25-50,90.73-133.2,66.83-209.94Z" transform="translate(-51.02 -54)"/><path id="yellow" class="cls-3" d="M261,105.53c59.32,3.87,110.5,42.07,129.89,97l27.59,13.74L437.88,179C409.29,106.74,338.06,55.31,254.33,54L284,83Z" transform="translate(-51.02 -54)"/><path id="green" class="cls-4" d="M113.62,196.76c21.6-53.62,73.78-89.57,132.76-91.45L269.19,83,239.78,54.3C157.57,58.82,88.64,111.74,62.39,184.36l35.53-17.69Z" transform="translate(-51.02 -54)"/><path id="blue" class="cls-5" d="M156.41,360q-5-4.12-9.67-8.63C109,314.5,94.55,260.61,109,210.39L93.31,180.46,58,198c-21.15,76,6.45,157,70,205.51l-6.19-38.17Z" transform="translate(-51.02 -54)"/></svg>