<?xml version="1.0" encoding="utf-8"?>
<!-- Generator: Adobe Illustrator 24.1.2, SVG Export Plug-In . SVG Version: 6.00 Build 0)  -->
<svg version="1.1" id="Layer_1" xmlns="http://www.w3.org/2000/svg" xmlns:xlink="http://www.w3.org/1999/xlink" x="0px" y="0px"
	 viewBox="0 0 512 512" style="enable-background:new 0 0 512 512;" xml:space="preserve">
<style type="text/css">
	.st0{fill:#39367F;}
	.st1{fill:#BF7C19;}
	.st2{fill:#55E555;}
	.st3{fill:#2285BC;}
	.st4{fill:#C6271A;}
</style>
<path id="red" class="st0" d="M319,371.6c-49.5,29.4-112.1,27.9-160-4l-34.1,5.3l6.2,38.2c67.9,44.2,156.5,43.8,223.9-1.1l-41.2-6.4
	L319,371.6z"/>
<path id="pink" class="st1" d="M433.7,191.4L414,229l-28.1-14c11.8,48.7-3,100-39.3,135.4c-4.9,4.8-10.2,9.2-15.7,13.3l-5.1,31.3
	l41,6.3C431,351.4,457.5,268.1,433.7,191.4L433.7,191.4z"/>
<path id="yellow" class="st2" d="M252,104.5c59.3,3.9,110.5,42.1,129.9,97l27.6,13.7l19.4-37.3c-28.6-72.2-99.8-123.7-183.5-125
	L275,82L252,104.5z"/>
<path id="green" class="st3" d="M104.6,195.8c21.6-53.6,73.8-89.6,132.8-91.5L260.2,82l-29.4-28.7c-82.2,4.5-151.1,57.4-177.4,130.1
	l35.5-17.7L104.6,195.8z"/>
<path id="blue" class="st4" d="M147.4,359c-3.3-2.7-6.6-5.6-9.7-8.6c-37.7-36.9-52.2-90.8-37.8-141l-15.6-29.9L49,197
	c-21.2,76,6.5,157,70,205.5l-6.2-38.2L147.4,359z"/>
</svg>
