<?xml version="1.0" encoding="utf-8"?>
<!-- Generator: Adobe Illustrator 24.1.2, SVG Export Plug-In . SVG Version: 6.00 Build 0)  -->
<svg version="1.1" id="Layer_1" xmlns="http://www.w3.org/2000/svg" xmlns:xlink="http://www.w3.org/1999/xlink" x="0px" y="0px"
	 viewBox="0 0 512 512" style="enable-background:new 0 0 512 512;" xml:space="preserve">
<style type="text/css">
	.st0{fill:#39367F;}
	.st1{fill:#BF7C19;}
	.st2{fill:#55E555;}
	.st3{fill:#2285BC;}
	.st4{fill:#C6271A;}
</style>
<path id="red" class="st0" d="M340,394c-54.1,32.9-122.5,31.2-174.9-4.5l-37.3,5.9l6.8,42.7c74.3,49.5,171.1,49,244.9-1.3l-45-7.1
	L340,394z"/>
<path id="pink" class="st1" d="M465.4,192.4L444,234.4l-30.8-15.7c13,54.5-3.3,111.9-42.9,151.5c-5.4,5.4-11.1,10.3-17.2,14.9
	l-5.6,35l44.8,7.1C462.6,371.4,491.5,278.2,465.4,192.4L465.4,192.4z"/>
<path id="yellow" class="st2" d="M266.7,95.1c64.9,4.3,120.9,47.1,142.1,108.5l30.2,15.4l21.3-41.7C428.9,96.5,351,38.9,259.5,37.5
	L292,69.9L266.7,95.1z"/>
<path id="green" class="st3" d="M105.6,197.2c23.6-60,80.7-100.2,145.2-102.3l25-25l-32.2-32.1c-89.9,5.1-165.3,64.3-194,145.5
	l38.9-19.8L105.6,197.2z"/>
<path id="blue" class="st4" d="M152.4,379.9c-3.7-3.1-7.2-6.3-10.6-9.7c-41.3-41.3-57.1-101.6-41.3-157.8L83.4,179l-38.6,19.7
	c-23.1,85.1,7.1,175.7,76.6,230l-6.8-42.7L152.4,379.9z"/>
</svg>
