<svg id="Layer_1" data-name="Layer 1" xmlns="http://www.w3.org/2000/svg" viewBox="0 0 233.21 292.94"><defs><style>.cls-1{fill:#0f99d6;fill-rule:evenodd;}.cls-2{fill:#1c75bc;}</style></defs><path class="cls-1" d="M226.81,352.16h121a3.93,3.93,0,0,1,4,3.85h0a3.93,3.93,0,0,1-4,3.85h-121a3.92,3.92,0,0,1-4-3.85h0A3.92,3.92,0,0,1,226.81,352.16Zm81.52,33.49h48.42a3.65,3.65,0,0,1,3.69,3.58h0a3.65,3.65,0,0,1-3.69,3.58H308.33a3.65,3.65,0,0,1-3.69-3.58h0A3.65,3.65,0,0,1,308.33,385.65Zm-82.5.6h48.42a3.64,3.64,0,0,1,3.69,3.57h0a3.65,3.65,0,0,1-3.69,3.58H225.83a3.65,3.65,0,0,1-3.69-3.58h0A3.64,3.64,0,0,1,225.83,386.25Zm-2.42,30.32h40.14a3.36,3.36,0,0,1,3.06,3.58h0a3.36,3.36,0,0,1-3.06,3.58H223.41a3.36,3.36,0,0,1-3.06-3.58h0A3.36,3.36,0,0,1,223.41,416.57Zm94.27,4h37.06c1.87,0,3.4,1.06,3.4,2.34h0c0,1.29-1.53,2.34-3.4,2.34H317.68c-1.87,0-3.4-1-3.4-2.34h0C314.28,421.66,315.81,420.6,317.68,420.6ZM313,449.36h46.14a3.93,3.93,0,0,1,4,3.86h0a3.93,3.93,0,0,1-4,3.85H313a3.92,3.92,0,0,1-4-3.85h0A3.93,3.93,0,0,1,313,449.36Zm-81.95,1.49h41.81c2.8,0,5.08,1.15,5.08,2.56h0c0,1.41-2.28,2.57-5.08,2.57H231.05c-2.79,0-5.08-1.16-5.08-2.57h0C226,452,228.26,450.85,231.05,450.85Zm-2.89,29.63H356.81a3.92,3.92,0,0,1,4,3.85h0a3.93,3.93,0,0,1-4,3.86H228.16a3.93,3.93,0,0,1-4-3.86h0A3.92,3.92,0,0,1,228.16,480.48Zm-1.22,31.71H355.58a3.93,3.93,0,0,1,4,3.85h0a3.93,3.93,0,0,1-4,3.86H226.94a3.93,3.93,0,0,1-4-3.86h0A3.92,3.92,0,0,1,226.94,512.19Zm-3.8-213.84H397.41a.94.94,0,0,1,.95.93V524.7a1,1,0,0,1-.95.93l-17.34.13V319a2,2,0,0,0-2-1.91H222.18V299.28A1,1,0,0,1,223.14,298.35ZM403.37,500.2h20.94a2,2,0,0,0,2-1.92v-234a2,2,0,0,0-2-1.92h-183a2,2,0,0,0-2,1.92l.29,28.53H218.36a2,2,0,0,0-2,1.92v22.38H195.06a2,2,0,0,0-2,1.91V553.34a2,2,0,0,0,2,1.92h183a2,2,0,0,0,2-1.92V531.1L401.4,531a2,2,0,0,0,2-1.92ZM246.05,267.9H420.32a.94.94,0,0,1,1,.92V493.94a1,1,0,0,1-1,.93H403.37V294.69a2,2,0,0,0-2-1.92h-156l-.29-23.95A1,1,0,0,1,246.05,267.9Zm-46.22,54.75H374.1a.94.94,0,0,1,1,.93V549a.94.94,0,0,1-1,.92H199.83a1,1,0,0,1-1-.92V323.58A1,1,0,0,1,199.83,322.65Z" transform="translate(-193.08 -262.32)"/><path class="cls-2" d="M309.6,440.31c-6.11,8.31-14.13,10.16-18.33,10.16-13.43,0-21-9.14-21-20.13a23.86,23.86,0,0,1,23.14-23.09c9.82,0,16.63,7.48,16.53,15.05,0,1.57-.1,3.14-1.3,3.42-1.91.46-16,1.11-25.75,1.48.4,9.79,6.31,14.77,13.53,14.77a18.1,18.1,0,0,0,11.41-4.15ZM291.37,411c-4,0-7.42,4.34-8,11.64l12.12-.28c1.41-.09,2-.27,2-1.84C297.58,415.93,295.27,411,291.37,411Z" transform="translate(-193.08 -262.32)"/></svg>