<svg xmlns="http://www.w3.org/2000/svg" viewBox="0 0 400.29 390.89"><defs><style>.cls-1{fill:#39367f;}.cls-2{fill:#bf7c19;}.cls-3{fill:#55e555;}.cls-4{fill:#2285bc;}.cls-5{fill:#c6271a;}</style></defs><g id="Layer_2" data-name="Layer 2"><g id="Layer_1-2" data-name="Layer 1"><path id="red" class="cls-1" d="M277,318.59a150.77,150.77,0,0,1-160-4l-34.14,5.27,6.2,38.17A204.27,204.27,0,0,0,313,356.9l-41.18-6.36Z"/><path id="pink" class="cls-2" d="M391.63,138.39,372,176l-28.15-14c11.85,48.74-3,100-39.25,135.42a151.68,151.68,0,0,1-15.74,13.31L283.79,342l41,6.34c64.24-50,90.73-133.2,66.82-209.94Z"/><path id="yellow" class="cls-3" d="M209.93,51.53c59.33,3.87,110.51,42.07,129.9,97l27.58,13.74L386.86,125C358.27,52.74,287,1.31,203.31,0L233,29Z"/><path id="green" class="cls-4" d="M62.6,142.76c21.59-53.62,73.78-89.57,132.75-91.45L218.17,29,188.75.3C106.55,4.82,37.62,57.74,11.37,130.36l35.52-17.69Z"/><path id="blue" class="cls-5" d="M105.39,306q-5-4.12-9.68-8.63c-37.74-36.9-52.19-90.79-37.79-141L42.29,126.46,7,144c-21.15,76,6.45,157,70,205.51l-6.2-38.17Z"/></g></g></svg>