<svg xmlns="http://www.w3.org/2000/svg" viewBox="0 0 400.31 390.89"><defs><style>.cls-1{fill:#342164;}.cls-2{fill:#f26922;}.cls-3{fill:#088843;}.cls-4{fill:#0b87c9;}.cls-5{fill:#9b1c1f;}</style></defs><g id="Layer_2" data-name="Layer 2"><g id="Layer_1-2" data-name="Layer 1"><g id="Layer_2-2" data-name="Layer 2"><g id="Layer_1-2-2" data-name="Layer 1-2"><path id="red" class="cls-1" d="M277,318.59a150.77,150.77,0,0,1-160-4l-34.14,5.27L89.08,358A204.26,204.26,0,0,0,313,356.9l-41.18-6.36Z"/><path id="pink" class="cls-2" d="M391.65,138.39,372,176l-28.15-14c11.85,48.74-3,100-39.25,135.42a151.3,151.3,0,0,1-15.74,13.31L283.81,342l41,6.34c64.24-50,90.73-133.2,66.82-209.94Z"/><path id="yellow" class="cls-3" d="M210,51.53c59.33,3.87,110.51,42.07,129.9,97l27.58,13.74L386.88,125C358.29,52.74,287,1.31,203.33,0L233,29Z"/><path id="green" class="cls-4" d="M62.62,142.76C84.21,89.14,136.4,53.19,195.37,51.31L218.19,29,188.77.3C106.57,4.82,37.64,57.74,11.39,130.36l35.52-17.69Z"/><path id="blue" class="cls-5" d="M105.41,306q-5-4.12-9.68-8.63c-37.74-36.9-52.19-90.79-37.79-141L42.31,126.46,7,144c-21.15,76,6.45,157,70,205.51l-6.2-38.17Z"/></g></g></g></g></svg>