<svg xmlns="http://www.w3.org/2000/svg" viewBox="0 0 65.51 95.41"><defs><style>.cls-1{fill:#feefef;}</style></defs><g id="Layer_2" data-name="Layer 2"><g id="Layer_1-2" data-name="Layer 1"><path class="cls-1" d="M39.38,95.41H29.28V85C13.94,83.65,4.07,76.2,0,63.51l14.89-3.19A15.64,15.64,0,0,0,29.28,73.1V52.52c-34.4-3.17-34.57-41.8,0-44.33V0h10V8.19c12.9,1.68,21,8,24.18,18.48l-14,2.77A12.32,12.32,0,0,0,39.3,20.08V38.13c34.91,1.46,35,46,0,46.71Zm0-41.88V73C53.23,72.53,56.38,55.34,39.38,53.53ZM29.28,20c-12.91-.19-15.31,16.07,0,17Z"/></g></g></svg>