<svg xmlns="http://www.w3.org/2000/svg" viewBox="0 0 28.35 28.35"><defs><style>.cls-1{fill:#fffef8;}</style></defs><g id="Layer_2" data-name="Layer 2"><g id="Layer_1-2" data-name="Layer 1"><path id="w" class="cls-1" d="M19.62,23.1a10.45,10.45,0,0,1-11.33-.29l-2.42.39L6.31,26a14.17,14.17,0,0,0,15.86-.08l-2.92-.46Z"/><path id="w-2" data-name="w" class="cls-1" d="M27.73,10l-1.39,2.72-2-1a10.47,10.47,0,0,1-2.78,9.82,10,10,0,0,1-1.11,1L20.1,24.8l2.9.46A14.19,14.19,0,0,0,27.73,10Z"/><path id="w-3" data-name="w" class="cls-1" d="M14.87,3.74a10.45,10.45,0,0,1,9.19,7l2,1L27.4,9.06A14.19,14.19,0,0,0,14.4,0l2.1,2.1Z"/><path id="w-4" data-name="w" class="cls-1" d="M4.43,10.35a10.48,10.48,0,0,1,9.4-6.63L15.45,2.1,13.37,0A14.19,14.19,0,0,0,.81,9.45L3.32,8.17Z"/><path id="w-5" data-name="w" class="cls-1" d="M7.46,22.19c-.23-.2-.46-.41-.68-.63A10.47,10.47,0,0,1,4.1,11.34L3,9.17.5,10.44a14.2,14.2,0,0,0,5,14.91L5,22.58Z"/></g></g></svg>